# xmcd CD database file
#
# Track frame offsets:
#	150
#	20175
#	64322
#	87282
#	100562
#	120696
#	139621
#
# Disc length: 2096 seconds
#
# Revision: 0
# Processed by: cddbd v1.5.1PL0 Copyright (c) Steve Scherf et al.
# Submitted via: CDex 1.51
#
DISCID=5a082e07
DTITLE=Mark Vine - Still Life
DYEAR=2005
DGENRE=Blues
TTITLE0=Bring It Here
TTITLE1=I Put A Spell On You (Live)
TTITLE2=Don't Throw Stones
TTITLE3=Little Darlin'
TTITLE4=So Hot
TTITLE5=I'll Be The First
TTITLE6=Mark Vine - Be Good To Me
EXTD=YEAR: 2005
EXTT0=
EXTT1=
EXTT2=
EXTT3=
EXTT4=
EXTT5=
EXTT6=
PLAYORDER=
